<svg width="600" height="96" viewBox="0 0 600 96" fill="none" xmlns="http://www.w3.org/2000/svg">
<path d="M94.1222 38.3805C89.0843 12.6494 64.1118 -4.1452 38.3807 0.892811C12.6494 5.93083 -4.14517 30.9031 0.892797 56.6342C5.93081 82.3658 30.9028 99.1603 56.6344 94.122C82.3655 89.0842 99.16 64.1121 94.1222 38.3805ZM73.3914 69.206L30.3589 40.2653L33.1154 54.3428C33.4897 56.2537 32.2148 58.149 30.3038 58.5233C28.3925 58.8976 26.4973 57.6232 26.1231 55.7118L21.7148 33.1969C21.3406 31.2855 22.6152 29.3902 24.5264 29.0164L47.0413 24.608C48.9527 24.2338 50.8475 25.5084 51.2218 27.4196C51.5961 29.3309 50.3217 31.2261 48.4103 31.6004L34.3328 34.3563L77.3652 63.297C78.2012 63.8594 78.7009 64.6812 78.8743 65.567C79.0476 66.4524 78.8947 67.4024 78.3328 68.2384C77.2455 69.8548 75.0078 70.2928 73.3914 69.206Z" fill="white"/>
<path d="M148.01 70.4518C148.01 72.3691 148.134 73.9463 148.381 75.1832C148.629 76.3583 149.092 77.2861 149.773 77.9664C150.515 78.6467 151.535 79.1415 152.834 79.4508C154.133 79.6982 155.834 79.8528 157.937 79.9146V81.8629H128.249V79.9146C130.29 79.7291 131.868 79.4817 132.981 79.1725C134.156 78.8632 135.053 78.3375 135.671 77.5953C136.29 76.8531 136.661 75.8326 136.784 74.5338C136.97 73.1731 137.063 71.3795 137.063 69.153V23.3231C137.063 21.4058 136.97 19.8905 136.784 18.7773C136.599 17.6021 136.197 16.7053 135.578 16.0868C134.96 15.4065 134.063 14.9117 132.888 14.6025C131.713 14.2932 130.167 14.0458 128.249 13.8603V11.7265H156.174C161.431 11.7265 166.163 12.4687 170.368 13.9531C174.636 15.4374 177.852 17.3857 180.017 19.7978C182.676 22.952 184.006 26.663 184.006 30.9305C184.006 34.4559 183.078 37.7339 181.223 40.7644C179.429 43.7332 176.955 46.0834 173.801 47.8152C171.513 49.0522 168.884 49.949 165.915 50.5056C163.008 51.0622 159.452 51.3406 155.246 51.3406C153.886 51.3406 152.68 51.3406 151.628 51.3406C150.639 51.2787 149.433 51.2169 148.01 51.155V70.4518ZM148.01 46.7947C149.247 46.9184 150.267 47.0112 151.072 47.073C151.937 47.1349 152.896 47.1658 153.947 47.1658C166.255 47.1658 172.409 41.9705 172.409 31.5799C172.409 26.0754 170.708 22.0552 167.307 19.5194C163.967 16.9836 158.679 15.7157 151.443 15.7157C150.02 15.7157 149.092 15.9631 148.659 16.4579C148.226 16.8909 148.01 17.8495 148.01 19.3339V46.7947Z" fill="white"/>
<path d="M187.439 14.1386C189.294 13.7057 190.933 13.3346 192.355 13.0253C193.84 12.6542 195.231 12.2831 196.53 11.9121C197.891 11.541 199.19 11.1699 200.427 10.7988C201.664 10.4277 202.963 9.99474 204.323 9.49995L204.787 9.77827V72.9567C204.787 74.441 204.88 75.6471 205.065 76.5748C205.251 77.4407 205.622 78.152 206.179 78.7086C206.735 79.2034 207.508 79.5745 208.498 79.8219C209.549 80.0693 210.91 80.2548 212.58 80.3785V81.8629H187.717V80.3785C189.387 80.193 190.747 79.9765 191.799 79.7291C192.85 79.4199 193.685 78.9869 194.304 78.4303C194.922 77.8118 195.324 77.0387 195.51 76.111C195.757 75.1832 195.881 74.0081 195.881 72.5856V22.1171C195.881 19.6431 195.541 17.9732 194.86 17.1073C194.242 16.1796 193.098 15.7157 191.428 15.7157C190.933 15.7157 190.376 15.7467 189.758 15.8085C189.201 15.8085 188.645 15.8394 188.088 15.9013H187.439V14.1386Z" fill="white"/>
<path d="M253.957 70.7301C253.957 73.0804 254.173 74.7194 254.606 75.6471C255.039 76.513 255.874 76.9459 257.111 76.9459C258.534 76.9459 260.08 76.2965 261.75 74.9977V77.6881C259.956 79.6673 258.379 81.0279 257.018 81.7701C255.658 82.5123 254.08 82.8834 252.287 82.8834C250.122 82.8834 248.514 82.2958 247.463 81.1207C246.473 79.8837 245.855 77.8427 245.607 74.9977C242.391 77.7809 239.577 79.7909 237.165 81.0279C234.753 82.2649 232.403 82.8834 230.114 82.8834C226.774 82.8834 224.053 81.832 221.95 79.7291C219.909 77.6262 218.889 74.9049 218.889 71.5651C218.889 69.8952 219.198 68.2253 219.816 66.5553C220.497 64.8236 221.455 63.432 222.692 62.3806C223.806 61.391 224.826 60.556 225.754 59.8757C226.743 59.1335 228.011 58.3913 229.557 57.6491C231.104 56.8451 233.114 55.9483 235.588 54.9587C238.062 53.9691 241.34 52.6394 245.422 50.9695V44.197C245.422 41.2902 244.71 39.0945 243.288 37.6102C241.927 36.1258 239.948 35.3836 237.35 35.3836C235.186 35.3836 233.361 35.9093 231.877 36.9608C230.454 37.9503 229.743 39.1564 229.743 40.5789C229.743 41.1355 229.805 41.8468 229.929 42.7127C230.114 43.5786 230.207 44.2898 230.207 44.8465C230.207 46.0834 229.712 47.1349 228.723 48.0007C227.795 48.8666 226.712 49.2996 225.475 49.2996C224.238 49.2996 223.156 48.8666 222.228 48.0007C221.363 47.073 220.93 45.9907 220.93 44.7537C220.93 43.393 221.301 42.0014 222.043 40.5789C222.847 39.1564 223.929 37.8885 225.29 36.7752C226.712 35.5382 228.599 34.5796 230.949 33.8992C233.361 33.2189 235.959 32.8787 238.742 32.8787C241.958 32.8787 244.649 33.4354 246.813 34.5487C249.04 35.6001 250.741 37.0845 251.916 39.0018C252.658 40.2387 253.184 41.6922 253.493 43.3621C253.802 44.9702 253.957 47.1658 253.957 49.949V70.7301ZM245.422 53.5671C242.206 54.7422 239.453 55.8864 237.165 56.9997C234.938 58.0511 233.114 59.1644 231.691 60.3395C230.331 61.4528 229.341 62.6589 228.723 63.9577C228.104 65.2565 227.795 66.679 227.795 68.2253V68.6891C227.795 69.8024 227.98 70.8847 228.351 71.9362C228.723 72.9257 229.217 73.7916 229.836 74.5338C230.516 75.276 231.289 75.8636 232.155 76.2965C233.021 76.7294 233.918 76.9459 234.846 76.9459C235.959 76.9459 237.196 76.7294 238.556 76.2965C239.979 75.8017 241.309 75.2141 242.546 74.5338C243.783 73.8535 244.556 73.1422 244.865 72.4C245.236 71.6579 245.422 70.4827 245.422 68.8747V53.5671Z" fill="white"/>
<path d="M289.025 37.5174H278.263V67.9469C278.263 71.3486 278.696 73.7916 279.562 75.276C280.428 76.6985 281.82 77.4098 283.737 77.4098C284.974 77.4098 286.056 77.1624 286.984 76.6676C287.912 76.111 288.994 75.1214 290.231 73.6989L291.53 74.9977C288.19 80.2548 283.922 82.8834 278.727 82.8834C272.48 82.8834 269.357 78.3994 269.357 69.4313V37.5174H263.791C263.543 37.4555 263.42 37.2391 263.42 36.868C263.42 36.2495 264.007 35.5692 265.182 34.827C267.965 33.2189 271.398 29.4461 275.48 23.5087C275.789 23.0139 276.13 22.55 276.501 22.1171C276.934 21.6223 277.305 21.0966 277.614 20.5399C277.861 20.5399 278.016 20.6327 278.078 20.8183C278.201 21.0038 278.263 21.3749 278.263 21.9315V34.1776H289.025V37.5174Z" fill="white"/>
<path d="M324.279 37.5174H311.29V70.9157C311.29 72.8948 311.383 74.5029 311.569 75.7399C311.816 76.915 312.28 77.8427 312.96 78.5231C313.641 79.1415 314.63 79.6054 315.929 79.9146C317.228 80.162 318.96 80.3167 321.124 80.3785V81.8629H293.664V80.3785C295.581 80.2548 297.096 80.0693 298.209 79.8219C299.385 79.5126 300.281 79.0178 300.9 78.3375C301.518 77.6572 301.92 76.7294 302.106 75.5543C302.291 74.3792 302.384 72.833 302.384 70.9157V37.5174H293.756V33.992H302.384C302.384 31.8892 302.446 30.0646 302.57 28.5184C302.755 26.9103 302.972 25.4878 303.219 24.2509C303.528 22.952 303.9 21.746 304.332 20.6327C304.827 19.5194 305.415 18.3752 306.095 17.2001C307.456 14.8499 309.435 12.9944 312.033 11.6337C314.692 10.2112 317.692 9.49995 321.032 9.49995C324.248 9.49995 326.876 10.1184 328.917 11.3554C331.02 12.5924 332.072 14.1695 332.072 16.0868C332.072 17.3238 331.639 18.3752 330.773 19.2411C329.969 20.107 328.917 20.5399 327.619 20.5399C326.753 20.5399 325.949 20.2616 325.206 19.705C324.464 19.0865 323.691 18.066 322.887 16.6435C321.959 15.0973 321.063 14.0458 320.197 13.4892C319.393 12.8707 318.403 12.5615 317.228 12.5615C313.208 12.5615 311.198 15.6848 311.198 21.9315V33.992H324.279V37.5174Z" fill="white"/>
<path d="M353.317 33.1571C356.718 33.1571 359.842 33.7446 362.687 34.9198C365.532 36.0949 367.975 37.7648 370.016 39.9295C372.119 42.0323 373.758 44.5372 374.933 47.4441C376.108 50.351 376.695 53.5671 376.695 57.0925C376.695 60.8034 376.077 64.236 374.84 67.3903C373.665 70.4827 372.026 73.2041 369.923 75.5543C367.82 77.8427 365.315 79.6363 362.408 80.9351C359.563 82.234 356.471 82.8834 353.131 82.8834C349.791 82.8834 346.699 82.2649 343.854 81.0279C341.009 79.7909 338.566 78.0592 336.525 75.8326C334.484 73.6061 332.876 70.9775 331.701 67.9469C330.525 64.9163 329.938 61.6074 329.938 58.0202C329.938 54.3712 330.494 51.0313 331.608 48.0007C332.783 44.9083 334.391 42.2797 336.432 40.115C338.473 37.8885 340.916 36.1876 343.761 35.0125C346.668 33.7756 349.853 33.1571 353.317 33.1571ZM351.739 36.1258C348.029 36.1258 345.06 37.6411 342.833 40.6717C340.607 43.7023 339.493 47.7224 339.493 52.7322C339.493 56.5049 339.895 60.1849 340.699 63.7721C341.504 67.2975 342.648 70.4518 344.132 73.235C345.245 75.3997 346.73 77.0696 348.585 78.2447C350.441 79.4199 352.451 80.0074 354.615 80.0074C358.512 80.0074 361.542 78.3066 363.707 74.9049C365.934 71.4414 367.047 66.71 367.047 60.7106C367.047 56.1957 366.398 51.99 365.099 48.0935C363.8 44.197 362.037 41.2592 359.811 39.2801C358.636 38.1668 357.399 37.3628 356.1 36.868C354.801 36.3732 353.348 36.1258 351.739 36.1258Z" fill="white"/>
<path d="M380.592 39.0018C382.138 38.4451 383.561 37.9503 384.859 37.5174C386.158 37.0226 387.395 36.5587 388.57 36.1258C389.807 35.631 391.013 35.1671 392.189 34.7342C393.425 34.2394 394.755 33.7137 396.178 33.1571L396.827 33.3426V43.0838C398.126 41.1665 399.301 39.5893 400.353 38.3524C401.404 37.0535 402.424 36.033 403.414 35.2908C404.404 34.4868 405.362 33.9302 406.29 33.6209C407.28 33.3117 408.331 33.1571 409.444 33.1571C411.238 33.1571 412.66 33.6828 413.712 34.7342C414.763 35.7238 415.289 37.0535 415.289 38.7234C415.289 40.2697 414.918 41.4757 414.176 42.3416C413.434 43.1456 412.444 43.5476 411.207 43.5476C410.527 43.5476 409.846 43.4239 409.166 43.1765C408.547 42.8673 407.805 42.2797 406.939 41.4139C406.383 40.9191 405.857 40.548 405.362 40.3006C404.867 40.0532 404.465 39.9295 404.156 39.9295C403.414 39.9295 402.61 40.2387 401.744 40.8572C400.94 41.4139 400.167 42.1251 399.425 42.991C398.683 43.8569 398.064 44.7846 397.569 45.7742C397.075 46.7638 396.827 47.6915 396.827 48.5574V72.4C396.827 73.8844 396.951 75.1214 397.198 76.111C397.446 77.1005 397.91 77.9046 398.59 78.5231C399.27 79.0797 400.198 79.5126 401.373 79.8219C402.548 80.1311 404.033 80.3167 405.826 80.3785V81.8629H380.314V80.3785C381.983 80.0693 383.313 79.76 384.303 79.4508C385.354 79.0797 386.127 78.6467 386.622 78.152C387.179 77.6572 387.519 77.0078 387.643 76.2037C387.828 75.3378 387.921 74.2555 387.921 72.9567V46.5164C387.921 44.1661 387.643 42.5271 387.086 41.5994C386.529 40.6098 385.602 40.115 384.303 40.115C383.622 40.115 383.004 40.146 382.447 40.2078C381.953 40.2697 381.334 40.3934 380.592 40.5789V39.0018Z" fill="white"/>
<path d="M417.144 37.8885C418.629 37.5174 419.959 37.1463 421.134 36.7752C422.371 36.4041 423.577 36.033 424.752 35.6619C425.927 35.2908 427.071 34.9198 428.184 34.5487C429.36 34.1157 430.627 33.6519 431.988 33.1571L432.73 33.3426V41.3211C434.957 39.6512 436.843 38.2905 438.389 37.2391C439.936 36.1258 441.296 35.2908 442.471 34.7342C443.708 34.1157 444.822 33.7137 445.811 33.5282C446.801 33.2808 447.883 33.1571 449.058 33.1571C454.81 33.1571 458.552 36.1567 460.284 42.156C463.253 39.0018 466.098 36.7134 468.819 35.2908C471.602 33.8683 474.54 33.1571 477.632 33.1571C485.858 33.1571 489.971 39.4038 489.971 51.8972V73.7916C489.971 77.8118 491.517 79.9146 494.61 80.1002L497.3 80.3785V81.8629H474.107V80.3785C475.653 80.193 476.859 79.9765 477.725 79.7291C478.653 79.4199 479.333 79.0178 479.766 78.5231C480.261 77.9664 480.57 77.2242 480.694 76.2965C480.879 75.3688 480.972 74.1318 480.972 72.5856V50.3201C480.972 48.0935 480.849 46.2381 480.601 44.7537C480.354 43.2693 479.921 42.0942 479.302 41.2283C478.684 40.3006 477.849 39.6512 476.797 39.2801C475.808 38.8471 474.571 38.6307 473.087 38.6307C470.613 38.6307 468.479 39.1564 466.685 40.2078C464.892 41.1974 463.191 42.8364 461.583 45.1248V71.8434C461.583 73.4515 461.675 74.8121 461.861 75.9254C462.108 76.9768 462.51 77.8427 463.067 78.5231C463.686 79.1415 464.49 79.6054 465.479 79.9146C466.469 80.162 467.706 80.3167 469.19 80.3785V81.8629H445.44V80.3785C446.925 80.2548 448.131 80.0693 449.058 79.8219C450.048 79.5745 450.79 79.1725 451.285 78.6158C451.842 78.0592 452.213 77.317 452.398 76.3893C452.584 75.4615 452.676 74.2555 452.676 72.7711V49.7634C452.676 42.3416 450.388 38.6307 445.811 38.6307C443.832 38.6307 441.76 39.0636 439.595 39.9295C437.493 40.7954 435.823 41.8468 434.586 43.0838C433.658 44.1352 433.194 44.7537 433.194 44.9392V74.8121C433.194 76.915 433.658 78.3375 434.586 79.0797C435.575 79.8219 437.493 80.2548 440.338 80.3785V81.8629H416.866V80.3785C418.35 80.3167 419.557 80.162 420.484 79.9146C421.474 79.6673 422.247 79.2652 422.804 78.7086C423.36 78.152 423.731 77.4098 423.917 76.482C424.164 75.4925 424.288 74.2864 424.288 72.8639V46.0525C424.288 43.4549 424.01 41.6922 423.453 40.7644C422.958 39.7749 422 39.2801 420.577 39.2801C419.959 39.2801 419.402 39.3419 418.907 39.4656C418.474 39.5275 417.887 39.6202 417.144 39.7439V37.8885Z" fill="white"/>
<path d="M599.072 13.8603C597.402 13.9221 595.949 14.1077 594.712 14.4169C593.475 14.6643 592.3 15.1282 591.187 15.8085C590.073 16.4889 588.898 17.4784 587.661 18.7773C586.486 20.0142 585.033 21.6841 583.301 23.787L567.808 43.0838L588.218 72.0289C589.331 73.5752 590.29 74.8431 591.094 75.8326C591.96 76.7604 592.795 77.5025 593.599 78.0592C594.465 78.6158 595.392 79.0178 596.382 79.2652C597.371 79.5126 598.577 79.7291 600 79.9146V81.8629H568.55V79.9146L571.333 79.6363C574.859 79.5745 576.621 78.554 576.621 76.5748C576.621 74.9668 574.828 71.5032 571.24 66.1842L561.221 51.3406L548.511 67.0192C546.594 69.4931 545.202 71.4414 544.336 72.8639C543.47 74.2864 543.037 75.3688 543.037 76.111C543.037 77.3479 543.594 78.2447 544.707 78.8014C545.882 79.2962 548.016 79.6673 551.109 79.9146V81.8629H526.431V79.9146C527.792 79.7909 528.905 79.6363 529.771 79.4508C530.637 79.2034 531.564 78.7086 532.554 77.9664C533.544 77.1624 534.719 75.9873 536.079 74.441C537.502 72.833 539.388 70.6373 541.739 67.8542L558.345 47.3513L546.934 30.4666C544.274 26.7557 542.11 23.8179 540.44 21.6532C538.77 19.4885 537.285 17.8495 535.987 16.7362C534.688 15.5611 533.42 14.8189 532.183 14.5097C530.946 14.1386 529.462 13.9221 527.73 13.8603V11.7265H559.737V13.8603H556.768C553.366 13.9221 551.665 14.9736 551.665 17.0146C551.665 18.1897 552.346 20.0142 553.706 22.4882C555.129 24.9003 557.479 28.3638 560.757 32.8787L565.117 39.0945L577.085 24.4364C578.693 22.4572 579.775 20.9729 580.332 19.9833C580.951 18.9319 581.26 18.0041 581.26 17.2001C581.26 15.9631 580.765 15.1282 579.775 14.6952C578.786 14.2005 576.838 13.9221 573.931 13.8603V11.7265H599.072V13.8603Z" fill="white"/>
</svg>
