<svg width="694" height="89" viewBox="0 0 694 89" fill="none" xmlns="http://www.w3.org/2000/svg">
<path d="M87.4606 35.6641C82.7793 11.7541 59.5742 -3.85182 35.6643 0.829621C11.7541 5.51107 -3.85179 28.7159 0.829609 52.6259C5.51105 76.5363 28.7156 92.1421 52.626 87.4604C76.536 82.7792 92.1419 59.5745 87.4606 35.6641ZM68.197 64.3079L28.2103 37.4155L30.7716 50.4967C31.1194 52.2723 29.9347 54.0334 28.1591 54.3812C26.383 54.7291 24.6219 53.5448 24.2742 51.7687L20.1779 30.8473C19.8302 29.0712 21.0146 27.3101 22.7905 26.9628L43.712 22.8664C45.4881 22.5186 47.2487 23.703 47.5965 25.4789C47.9443 27.255 46.7601 29.0161 44.984 29.3639L31.9028 31.9247L71.8896 58.8171C72.6664 59.3397 73.1308 60.1033 73.2919 60.9265C73.453 61.7492 73.3108 62.6319 72.7887 63.4088C71.7784 64.9108 69.699 65.3177 68.197 64.3079Z" fill="white"/>
<path d="M159.248 50C163.6 50 167.024 48.816 169.52 46.448C172.08 44.08 173.36 40.816 173.36 36.656C173.36 30.768 171.856 25.968 168.848 22.256C165.904 18.48 161.584 16.592 155.888 16.592C151.536 16.592 147.568 17.84 143.984 20.336V78.896L158.864 83.024L156.944 86.864H122.96V83.888L131.984 76.784V18.416L122 15.152L123.92 11.312H135.056C141.264 11.312 147.376 11.12 153.392 10.736C157.872 10.48 161.168 10.352 163.28 10.352C167.76 10.352 171.728 11.312 175.184 13.232C178.704 15.088 181.424 17.68 183.344 21.008C185.264 24.336 186.224 28.016 186.224 32.048C186.224 36.528 184.592 40.752 181.328 44.72C178.064 48.688 173.904 51.792 168.848 54.032C163.792 56.272 158.832 57.264 153.968 57.008L149.456 53.744L151.376 49.904H159.152L159.248 50Z" fill="white"/>
<path d="M222.156 86.768H195.372V83.792L203.917 77.072V18.032L195.372 12.08V9.104L211.788 2.96H215.436V79.568L224.076 82.928L222.156 86.768Z" fill="white"/>
<path d="M282.746 86.768H264.506V78.416L253.658 86.96C252.378 87.472 250.778 87.728 248.858 87.728C243.354 87.728 239.354 86.352 236.858 83.6C234.426 80.848 233.21 77.552 233.21 73.712C233.21 71.408 234.042 69.136 235.706 66.896C237.37 64.656 239.738 62.544 242.81 60.56H264.506V54.416C264.506 50.256 263.386 47.312 261.146 45.584C258.97 43.856 255.962 42.992 252.122 42.992C248.154 42.992 243.29 45.392 237.53 50.192L234.65 46.544L248.474 35.6C251.034 35.088 254.106 34.832 257.69 34.832C263.514 34.832 268.026 36.272 271.226 39.152C274.426 41.968 276.026 46.096 276.026 51.536V79.568L284.666 82.928L282.746 86.768ZM251.93 79.568C255.834 79.568 260.026 77.776 264.506 74.192V64.496H247.514C246.682 65.52 246.074 66.544 245.69 67.568C245.37 68.592 245.21 69.712 245.21 70.928C245.21 73.296 245.818 75.344 247.034 77.072C248.25 78.736 249.882 79.568 251.93 79.568Z" fill="white"/>
<path d="M319.715 86.96C318.243 87.472 316.451 87.728 314.339 87.728C309.027 87.728 305.123 86.352 302.627 83.6C300.195 80.784 298.979 76.464 298.979 70.64V42.608H288.611V38.672L306.851 17.456H310.499V38.672H327.779V42.608H310.499V71.792C310.499 76.976 312.995 79.568 317.987 79.568C319.331 79.568 320.611 79.28 321.827 78.704C323.107 78.128 324.675 77.104 326.531 75.632L329.411 79.28L319.715 86.96Z" fill="white"/>
<path d="M370.696 2C372.488 2 374.504 2.192 376.744 2.576C379.048 2.896 380.68 3.248 381.64 3.632V18.416H377.992C376.392 15.856 374.44 13.84 372.136 12.368C369.832 10.832 367.496 10.064 365.128 10.064C362.184 10.064 359.944 11.376 358.408 14C356.936 16.624 356.2 20.464 356.2 25.52V38.672H373.48V42.608H356.2V78.8L369.64 82.928L367.72 86.768H336.136V83.792L344.68 77.072V42.608H333.256V38.672H344.68V30.128C344.68 25.2 346.024 20.56 348.712 16.208C351.4 11.856 354.76 8.4 358.792 5.84C362.888 3.28 366.856 2 370.696 2Z" fill="white"/>
<path d="M407.722 34.832C411.946 34.832 415.722 35.952 419.05 38.192C422.442 40.368 425.066 43.344 426.922 47.12C428.842 50.896 429.802 55.056 429.802 59.6C429.802 64.528 428.298 69.168 425.29 73.52C422.282 77.808 418.506 81.264 413.962 83.888C409.482 86.448 405.13 87.728 400.906 87.728C396.682 87.728 392.874 86.64 389.482 84.464C386.154 82.224 383.53 79.216 381.61 75.44C379.754 71.664 378.826 67.504 378.826 62.96C378.826 58.032 380.33 53.424 383.338 49.136C386.346 44.784 390.09 41.328 394.57 38.768C399.114 36.144 403.498 34.832 407.722 34.832ZM402.154 42.896C394.922 42.896 391.306 48.048 391.306 58.352C391.306 64.432 392.618 69.52 395.242 73.616C397.866 77.648 401.61 79.664 406.474 79.664C413.706 79.664 417.322 74.48 417.322 64.112C417.322 58.096 416.01 53.072 413.386 49.04C410.762 44.944 407.018 42.896 402.154 42.896Z" fill="white"/>
<path d="M476.448 34.928C478.56 34.928 480.417 35.504 482.017 36.656C483.617 37.808 484.864 39.408 485.76 41.456L479.424 49.424H475.776C475.52 47.824 475.041 46.704 474.337 46.064C473.697 45.36 472.8 45.008 471.648 45.008C470.24 45.008 468.737 45.392 467.137 46.16C465.601 46.864 463.841 48.24 461.857 50.288V78.896L475.297 83.024L473.376 86.864H441.793V83.888L450.336 77.168V50L441.793 45.008V42.032L458.208 33.968L461.185 45.776L471.169 35.6C472.513 35.088 474.272 34.832 476.448 34.832V34.928Z" fill="white"/>
<path d="M581.814 86.768H563.574V54.416C563.574 50.896 563.03 48.432 561.942 47.024C560.854 45.616 558.902 44.912 556.086 44.912C554.102 44.912 552.15 45.296 550.23 46.064C548.31 46.768 546.038 48.208 543.414 50.384V79.568L552.054 82.928L550.134 86.768H531.894V54.416C531.894 50.896 531.35 48.432 530.262 47.024C529.174 45.616 527.222 44.912 524.406 44.912C522.422 44.912 520.47 45.296 518.55 46.064C516.63 46.768 514.358 48.208 511.734 50.384V79.568L520.374 82.928L518.454 86.768H491.67V83.792L500.214 77.072V49.904L491.67 44.912V41.936L508.086 33.872L511.158 46.16L523.926 35.504C525.27 34.992 527.03 34.736 529.206 34.736C532.918 34.736 535.99 35.76 538.422 37.808C540.854 39.792 542.39 42.544 543.03 46.064L555.51 35.6C556.854 35.088 558.614 34.832 560.79 34.832C565.142 34.832 568.598 36.176 571.158 38.864C573.718 41.488 574.998 45.072 574.998 49.616V79.568L583.734 82.928L581.814 86.768Z" fill="white"/>
<path d="M691.768 86.768H662.584V83.792L670.168 77.936L651.928 54.896L631.96 77.456L645.88 82.928L643.96 86.768H614.776V83.792L625.432 77.264L648.952 51.056L625.432 21.008L615.736 15.152L617.656 11.312H646.84V14.288L639.256 20.144L657.4 42.992L675.736 20.72L661.72 15.152L663.64 11.312H692.824V14.288L682.936 20.336L660.568 46.928L684.088 77.072L693.688 82.928L691.768 86.768Z" fill="white"/>
</svg>
